<svg height="512pt" viewBox="0 0 512.001 512" width="512pt" xmlns="http://www.w3.org/2000/svg"><linearGradient id="a" gradientUnits="userSpaceOnUse" x1="256" x2="256" y1=".001" y2="512"><stop offset="0" stop-color="#2af598"/><stop offset="1" stop-color="#009efd"/></linearGradient><path d="M512 331c-8.68 0-15.7-3.035-22.094-9.555-21.023-21.433-27.437-71.043-28.691-100.047.183-5.312.285-10.617.285-15.898C461.5 92.52 369.855.543 257 .004L256 0v.004C146.766.524 57.406 86.71 51.785 194.69a113.068 113.068 0 00-.777 12.727h-.004c0 .031 0 .066.004.098-.004.164-.008.324-.008.484h.016c.394 23.512-3.993 87.992-28.899 113.418C15.715 327.957 8.687 331 0 331v40c.277 0 .555-.016.832-.02v.02c.094 0 .457.004 1.07.004 4.106 0 19.223-.121 36.153-1.762 17.898-1.738 30.422-4.457 39.398-7.48 4.594 13.07 9.738 25.449 15.375 36.89 15 30.442 33.41 54.98 54.805 73.348H75v40h363v-40h-72.633c21.395-18.363 39.805-42.906 54.805-73.348 5.59-11.343 10.691-23.613 15.258-36.558 8.82 2.886 20.957 5.472 37.988 7.144 16.727 1.645 31.64 1.766 35.695 1.766.606 0 .965-.004 1.059-.004v-.043c.61.016 1.215.043 1.828.043zM256.5 40c51.363.156 97.29 23.828 127.57 60.793A111.605 111.605 0 00348.5 95c-30.258 0-58.602 11.664-79.816 32.848-3.43 3.425-8.098 8.93-12.684 14.586-4.586-5.657-9.254-11.16-12.684-14.586C222.102 106.668 193.758 95 163.5 95a111.605 111.605 0 00-34.207 5.348C159.574 63.637 205.343 40.152 256.5 40zm0 432c-130.496-.445-165-174.441-165-266.5 0-2.438.063-4.86.168-7.273C96.43 162.582 126.816 135 163.5 135c19.582 0 37.89 7.512 51.555 21.152 5.289 5.286 18.105 21.723 24.941 30.844l15.008 20.024C228.94 207.402 205 222.566 205 222.566L256 273l51-50.434s-23.941-15.164-50-15.546l15.004-20.028c6.832-9.113 19.644-25.547 24.941-30.84C310.61 142.512 328.918 135 348.5 135c39.848 0 72.281 32.54 72.488 72.613-.015 1.957-.02 6.543.219 12.969C417.629 315.285 380.172 471.578 256.5 472zM369 195c0 11.047-8.953 20-20 20s-20-8.953-20-20 8.953-20 20-20 20 8.953 20 20zm-184 0c0 11.047-8.953 20-20 20s-20-8.953-20-20 8.953-20 20-20 20 8.953 20 20zm0 0" fill="url(#a)"/></svg>