<svg xmlns="http://www.w3.org/2000/svg" xmlns:xlink="http://www.w3.org/1999/xlink" viewBox="0 0 188.149 188.149"><defs><circle id="a" cx="94.074" cy="94.074" r="94.074"/></defs><use xlink:href="#a" overflow="visible" fill="#e1854f"/><clipPath id="b"><use xlink:href="#a" overflow="visible"/></clipPath><g clip-path="url(#b)"><path d="M148.616 200.748v.011H39.541v-.011a54.262 54.262 0 014.02-20.573v-.01a47.74 47.74 0 011.275-2.879 53.89 53.89 0 018.657-12.954c.339-.392.699-.771 1.059-1.152.36-.37.72-.74 1.09-1.11a54.263 54.263 0 015.891-5.079 56.255 56.255 0 013.177-2.189c.462-.298.935-.586 1.408-.863.277-.165.545-.329.822-.494a6.03 6.03 0 00.36-.195c.247-.144.493-.277.74-.411.021-.02.041-.02.041-.02.442-.236.873-.493 1.306-.761a32.427 32.427 0 003.691-2.57 34.331 34.331 0 004.74-4.575 33.579 33.579 0 003.455-4.832 33.32 33.32 0 002.807-5.933c.37-1.049.699-2.118.967-3.218.206-.771.37-1.553.514-2.345.349-1.974.534-4.01.534-6.086l7.948.041h.041l1.388.01 6.744.031c0 2.035.175 4.03.514 5.974.134.802.309 1.594.514 2.375.257 1.079.576 2.139.936 3.166a33.424 33.424 0 002.796 5.984 33.18 33.18 0 003.105 4.421 33.663 33.663 0 005.059 4.996c.391.319.781.628 1.183.915.359.268.729.524 1.1.771.082.062.154.113.236.164.37.247.74.494 1.131.72.421.258.854.515 1.285.751.072.02.134.052.185.093a62.809 62.809 0 012.673 1.573c.422.257.843.524 1.255.822a37.725 37.725 0 012.498 1.758c0 .011.011.011.011.011h.01a56.411 56.411 0 013.033 2.437 49.474 49.474 0 012.848 2.643c9.911 9.868 16.028 23.501 16.028 38.593z" fill="#ecc19c"/><path d="M148.616 200.748H39.541a54.262 54.262 0 014.02-20.573v-.01a47.74 47.74 0 011.275-2.879 53.89 53.89 0 018.657-12.954c.339-.392.699-.771 1.059-1.152.36-.37.72-.74 1.09-1.11a54.263 54.263 0 015.891-5.079 56.255 56.255 0 013.177-2.189c.462-.298.935-.586 1.408-.863.277-.165.545-.329.822-.494a6.03 6.03 0 00.36-.195c.247-.144.493-.288.74-.421.021-.021.041-.011.041-.011v-.01a57.51 57.51 0 001.306-.751 31.884 31.884 0 003.67-2.591l.021.021c5.326 5.449 12.739 8.832 20.964 8.853h.082c.453 0 .905-.011 1.347-.041 7.69-.34 14.62-3.65 19.668-8.802l.01-.01c.73.606 1.491 1.172 2.272 1.696.082.062.154.113.236.164.37.247.75.483 1.131.72.421.258.854.504 1.285.741.072.021.124.062.185.092a53.167 53.167 0 012.673 1.584c.422.257.843.524 1.255.822a37.725 37.725 0 012.498 1.758h.021a53.324 53.324 0 013.033 2.447 49.474 49.474 0 012.848 2.643c9.913 9.869 16.03 23.502 16.03 38.594zM110.925 135.585v6.262c0 .986-.309 1.901-.843 2.652a4.616 4.616 0 01-3.814 2.005H81.314a4.607 4.607 0 01-3.496-1.594 4.637 4.637 0 01-1.162-3.063v-6.262c0-1.769.987-3.311 2.437-4.092a4.626 4.626 0 012.221-.566h24.953a4.51 4.51 0 012.498.74 4.63 4.63 0 012.16 3.918z" fill="#5ab7b2"/><path d="M116.323 150.41v13.654H66.119v-10.127c.277-.165.545-.329.822-.494a6.03 6.03 0 00.36-.195c.247-.144.493-.277.74-.411.021-.02.041-.02.041-.02.442-.236.873-.493 1.306-.761a32.427 32.427 0 003.691-2.57 34.331 34.331 0 004.74-4.575 33.579 33.579 0 003.455-4.832h25.703a33.18 33.18 0 003.105 4.421 33.663 33.663 0 005.059 4.996c.39.319.78.627 1.182.914z" fill="#5ab7b2"/><path d="M149.244 70.114c0 22.557-11.772 42.174-29.097 52.147a52.11 52.11 0 01-17.417 6.292 49.956 49.956 0 01-7.258.709 58.4 58.4 0 01-1.388.02h-.01c-2.899 0-5.737-.236-8.513-.699-6.262-1.038-12.163-3.207-17.54-6.313-17.324-9.962-29.107-29.59-29.107-52.157 0-31.862 23.462-57.843 52.867-59.118.041-.01.072-.01.113-.01l.864-.031c.432-.01.853-.02 1.285-.02h.041c.442 0 .884.01 1.326.02h.093c.308.01.617.021.925.041h.031l.432.031.524.031c28.911 1.861 51.829 27.575 51.829 59.057z" fill="#141720"/><path d="M135.939 52.789v31.266c0 .453-.01.905-.02 1.357-.01.37-.021.73-.042 1.1-.01.329-.031.658-.062.987-.01.236-.031.473-.051.71-.01.144-.02.278-.041.421-.021.257-.042.524-.083.781-.041.494-.103.977-.175 1.471-.01.123-.031.247-.051.37-.031.247-.072.493-.113.74v.031l-.185 1.069c-.092.493-.185.987-.288 1.47-.01.021-.01.041-.021.062-.01.072-.02.144-.041.216-.01.021-.01.041-.02.062-.051.267-.113.524-.175.781-.021.113-.041.226-.082.339-.031.185-.082.37-.124.555-.031.103-.051.216-.092.318-.021.093-.052.186-.072.268a48.722 48.722 0 01-.72 2.488 52.42 52.42 0 01-.38 1.162c-.01.041-.031.082-.041.124l-.37 1.048c-.041.103-.082.205-.124.319-.123.329-.247.658-.38.987-.154.401-.319.792-.483 1.183-.144.35-.298.699-.452 1.049-.021.062-.051.113-.072.175-.175.37-.339.74-.514 1.1-.175.38-.36.761-.555 1.141a56.9 56.9 0 01-1.172 2.231l-.556.987a60.434 60.434 0 01-5.253 7.649c-.257.34-.524.668-.802.987-.381.463-.771.915-1.162 1.356-.329.371-.668.751-1.018 1.111-.01.021-.021.03-.041.051a56.084 56.084 0 01-3.022 3.013c-.206.205-.421.391-.638.586-.35.318-.699.627-1.059.926-.278.246-.566.483-.853.719a48.43 48.43 0 01-2.231 1.738c-.309.236-.627.463-.946.679-.514.37-1.038.72-1.563 1.059a16.34 16.34 0 01-.884.556c-.051.03-.093.062-.144.082a37.163 37.163 0 01-3.012 1.676c-.257.134-.514.257-.771.38-.257.124-.524.247-.802.37-.339.154-.678.299-1.018.432a2.947 2.947 0 01-.401.154c-.401.165-.812.319-1.213.453a21.9 21.9 0 01-1.521.483c-.35.103-.71.195-1.059.277-.021.01-.041.021-.072.021-.35.082-.699.164-1.048.226-.093.021-.186.042-.278.052-.288.052-.576.102-.864.134-.411.062-.822.113-1.233.134-.144.021-.278.03-.422.03-.329.02-.647.031-.966.031h-.041c-.319 0-.638-.011-.956-.031a2.32 2.32 0 01-.371-.03 9.632 9.632 0 01-.895-.082c-.062 0-.133-.011-.195-.021a23.72 23.72 0 01-1.152-.186 12.62 12.62 0 01-.997-.205 29.566 29.566 0 01-5.398-1.82 39.352 39.352 0 01-4.719-2.488c-.093-.051-.175-.113-.268-.164a43.654 43.654 0 01-2.098-1.378 85.58 85.58 0 01-1.172-.843 51.893 51.893 0 01-3.629-2.92c-.329-.299-.658-.597-.987-.905-.329-.298-.658-.606-.977-.904a41.611 41.611 0 01-2.21-2.272c-.051-.041-.092-.093-.133-.134a42.153 42.153 0 01-.895-.987 49.324 49.324 0 01-2.385-2.878 28.71 28.71 0 01-.854-1.101 57.89 57.89 0 01-3.681-5.521c-.288-.483-.565-.977-.843-1.47a56.139 56.139 0 01-2.796-5.757c-.123-.288-.247-.576-.35-.864-.165-.37-.309-.75-.442-1.121a53.443 53.443 0 01-.587-1.635c-.185-.545-.359-1.1-.534-1.655a40.966 40.966 0 01-.463-1.614 30.538 30.538 0 01-.452-1.758c-.01-.062-.031-.123-.042-.185a48.874 48.874 0 01-.524-2.498 45.598 45.598 0 01-.493-3.383c-.052-.36-.083-.72-.113-1.08a20.51 20.51 0 01-.092-1.131 44.85 44.85 0 01-.103-2.087c-.01-.453-.021-.905-.021-1.357V52.789c0-22.341 17.509-40.601 39.563-41.794.041-.01.072-.01.113-.01l.864-.031c.432-.01.853-.02 1.285-.02h.041c.442 0 .884.01 1.326.02h.093c.308.01.617.021.925.041h.031l.432.031c.309.021.617.041.915.072.154.01.298.021.453.041l.298.031c1.635.175 3.239.442 4.802.792a41.227 41.227 0 017.834 2.622 41.526 41.526 0 019.387 5.809 41.526 41.526 0 016.446 6.58c5.511 7.022 8.831 15.844 8.904 25.446.009.124.009.247.009.37z" fill="#ecc19c"/><path d="M145.275 68.283H42.893c0-30.813 21.684-55.941 48.888-57.288.041-.01.072-.01.113-.01l.864-.031c.432-.01.853-.02 1.285-.02h.041c.442 0 .884.01 1.326.02h.093c.308.01.617.021.925.041h.031l.432.031.524.031c.124.01.257.021.391.042.154.01.298.021.453.041l.298.031c26.175 2.529 46.718 27.132 46.718 57.112z" fill="#141720"/></g></svg>