<svg xmlns="http://www.w3.org/2000/svg" xmlns:xlink="http://www.w3.org/1999/xlink" viewBox="0 0 188.148 188.148"><defs><circle id="a" cx="94.074" cy="94.074" r="94.074"/></defs><use xlink:href="#a" overflow="visible" fill="#b7dc78"/><clipPath id="b"><use xlink:href="#a" overflow="visible"/></clipPath><g clip-path="url(#b)"><g fill="#141720"><path d="M58.416 149.355c0 3.979-1.573 7.402-3.825 8.842-.73.474-1.532.73-2.375.73s-1.645-.257-2.375-.73c-2.252-1.439-3.825-4.862-3.825-8.842 0-2.066.421-3.989 1.162-5.552 1.11-2.437 2.951-4.02 5.038-4.02s3.927 1.583 5.038 4.02c.741 1.562 1.162 3.485 1.162 5.552z"/><path d="M58.416 138.24c0 2.077-.421 4-1.162 5.563-1.121 2.427-2.961 4-5.038 4-2.077 0-3.917-1.573-5.038-4-.74-1.563-1.162-3.485-1.162-5.563 0-2.076.421-3.999 1.162-5.562 1.121-2.427 2.961-4.01 5.038-4.01 2.077 0 3.917 1.583 5.038 4.01.741 1.563 1.162 3.486 1.162 5.562z"/><path d="M58.416 127.116c0 2.077-.421 3.999-1.162 5.562-1.121 2.426-2.961 4.01-5.038 4.01-2.077 0-3.917-1.584-5.038-4.01-.74-1.563-1.162-3.485-1.162-5.562 0-2.066.421-3.989 1.162-5.552 1.11-2.437 2.951-4.021 5.038-4.021s3.927 1.584 5.038 4.021c.741 1.563 1.162 3.486 1.162 5.552z"/><path d="M58.416 116.002c0 2.077-.421 3.999-1.162 5.563-1.121 2.426-2.961 4.01-5.038 4.01-2.077 0-3.917-1.584-5.038-4.01-.74-1.563-1.162-3.485-1.162-5.563 0-2.066.421-3.989 1.162-5.552 1.11-2.437 2.951-4.021 5.038-4.021s3.927 1.584 5.038 4.021c.741 1.563 1.162 3.486 1.162 5.552z"/><path d="M58.416 104.878c0 1.09-.113 2.138-.339 3.115a11.642 11.642 0 01-.823 2.457c-1.121 2.426-2.961 3.999-5.038 3.999-2.077 0-3.917-1.573-5.038-3.999-.74-1.563-1.162-3.485-1.162-5.572 0-2.066.421-3.989 1.162-5.553 1.11-2.426 2.951-4.01 5.038-4.01.462 0 .904.083 1.336.227 1.532.514 2.837 1.892 3.701 3.783.742 1.564 1.163 3.487 1.163 5.553z"/><path d="M58.416 93.764c0 2.076-.421 3.999-1.162 5.562-.473 1.039-1.09 1.923-1.799 2.592-.946.904-2.056 1.418-3.238 1.418-2.077 0-3.917-1.583-5.038-4.01-.74-1.563-1.162-3.485-1.162-5.562 0-2.066.421-3.989 1.162-5.552 1.11-2.438 2.951-4.021 5.038-4.021s3.927 1.583 5.038 4.021c.74 1.562 1.161 3.485 1.161 5.552z"/><path d="M58.416 82.649c0 .113 0 .227-.01.329-.041 1.953-.452 3.753-1.151 5.233-.997 2.158-2.56 3.649-4.37 3.947a3.601 3.601 0 01-.668.063c-2.077 0-3.917-1.584-5.038-4.01-.74-1.563-1.162-3.485-1.162-5.563 0-2.077.421-4 1.162-5.563.421-.915.946-1.717 1.553-2.354.997-1.049 2.2-1.655 3.485-1.655 2.077 0 3.917 1.584 5.038 4.01.74 1.563 1.161 3.486 1.161 5.563z"/><path d="M58.416 71.524c0 2.077-.421 4-1.162 5.563-.997 2.17-2.581 3.671-4.4 3.958-.01-.01-.01 0-.01 0a4.154 4.154 0 01-.627.052c-2.077 0-3.917-1.583-5.038-4.01-.74-1.563-1.162-3.485-1.162-5.563 0-1.202.144-2.364.411-3.423.894-3.589 3.146-6.139 5.789-6.139 3.423.001 6.199 4.278 6.199 9.562zM58.283 170.37H46.15l3.692-12.174 2.375-7.844 2.374 7.844 1.152 3.784z"/></g><g fill="#141720"><ellipse cx="135.939" cy="149.354" rx="6.198" ry="9.57"/><ellipse cx="135.939" cy="138.235" rx="6.198" ry="9.57"/><ellipse cx="135.939" cy="127.118" rx="6.198" ry="9.569"/><ellipse cx="135.939" cy="116" rx="6.198" ry="9.57"/><ellipse cx="135.939" cy="104.882" rx="6.198" ry="9.57"/><ellipse cx="135.939" cy="93.765" rx="6.198" ry="9.569"/><ellipse cx="135.939" cy="82.646" rx="6.198" ry="9.57"/><ellipse cx="135.939" cy="71.528" rx="6.198" ry="9.57"/><path d="M135.939 150.347l-6.065 20.024h12.131z"/></g><path d="M148.614 200.751v.011H39.54v-.011a54.252 54.252 0 014.02-20.573v-.01c.391-.977.823-1.933 1.275-2.879a53.486 53.486 0 013.948-6.919 55.034 55.034 0 012.694-3.671 55.487 55.487 0 012.015-2.364c.339-.391.699-.771 1.059-1.152.36-.37.72-.74 1.09-1.109.031-.031.072-.072.103-.093a53.154 53.154 0 015.788-4.986 56.818 56.818 0 013.177-2.191c.134-.093.277-.175.421-.257a46.319 46.319 0 012.899-1.707c.01-.01.021-.01.031-.01h.01l.01-.011c.36-.185.71-.391 1.059-.617.082-.041.154-.082.237-.133.288-.175.576-.36.863-.545.093-.063.185-.124.277-.175.247-.165.494-.329.741-.515.308-.205.617-.432.915-.657 0-.011 0-.011.01 0 .298-.217.596-.442.884-.679l.01-.011a34.331 34.331 0 004.74-4.575 33.502 33.502 0 003.455-4.832 33.25 33.25 0 002.807-5.933c.37-1.049.699-2.118.966-3.218.206-.771.37-1.553.514-2.345a34.85 34.85 0 00.535-6.086l7.947.041h.041l1.387.011 6.745.03c0 2.036.175 4.03.514 5.974.134.802.309 1.594.515 2.375.257 1.079.575 2.139.936 3.166a33.424 33.424 0 002.796 5.984 33.18 33.18 0 003.105 4.421 33.622 33.622 0 005.059 4.997c.268.225.534.441.812.637.083.072.176.134.268.195l.022.018c.15.112.301.232.451.331.246.165.482.34.729.504.082.061.154.113.236.165l.556.37c.195.123.38.236.575.35.216.123.422.257.638.38.205.134.422.257.638.37.071.021.123.062.184.093l.34.185c.071.042.144.083.205.124.277.154.545.309.813.463.442.257.894.524 1.326.802.422.257.843.524 1.254.822a37.856 37.856 0 012.499 1.758c0 .011.01.011.01.011h.011a57.292 57.292 0 013.033 2.436c.925.792 1.81 1.614 2.673 2.478.062.052.113.104.175.165a54.002 54.002 0 016.775 8.215c5.85 8.678 9.253 19.124 9.253 30.382z" fill="#dfb28b"/><path d="M148.614 200.751H39.54a54.252 54.252 0 014.02-20.573v-.01c.391-.977.823-1.933 1.275-2.879a53.486 53.486 0 013.948-6.919 55.034 55.034 0 012.694-3.671 55.487 55.487 0 012.015-2.364c.339-.391.699-.771 1.059-1.152.36-.37.72-.74 1.09-1.109.031-.031.072-.072.103-.093a53.154 53.154 0 015.788-4.986 56.818 56.818 0 013.177-2.191c.134-.093.277-.175.421-.257a46.319 46.319 0 012.899-1.707c0-.01.01-.01.01-.01.01-.011.01-.011.021 0h.01v-.011h.01c.36-.205.71-.411 1.059-.617.082-.041.154-.082.237-.133.288-.175.576-.36.863-.545.277-.186.555-.381.833-.565l.34-.247a20.934 20.934 0 001.635-1.235l.011-.01.02.02a28.943 28.943 0 001.82 1.717c.309.268.627.524.946.781.01.02.01.02.021.011.298.236.586.463.884.688.072.052.133.104.206.145a30.6 30.6 0 004.194 2.519c.38.195.771.37 1.172.535a.345.345 0 00.154.071c.884.381 1.789.72 2.714 1.019.35.112.699.216 1.059.308l.956.247a.829.829 0 00.226.052c1.038.236 2.107.421 3.198.555.37.041.74.083 1.121.113.761.062 1.521.093 2.293.093h.082c.226 0 .452 0 .678-.011.113.011.227.011.34-.01.112 0 .216-.011.328-.02.483-.021.957-.052 1.43-.093.411-.041.822-.093 1.224-.145.113 0 .216-.01.318-.041.318-.041.627-.102.936-.153.124-.011.247-.031.37-.072.227-.041.452-.093.668-.134a6.93 6.93 0 00.658-.154 29.243 29.243 0 002.663-.781c.463-.144.904-.318 1.347-.504.216-.082.432-.164.638-.257a25.893 25.893 0 003.064-1.553c.35-.195.689-.401 1.028-.606.226-.145.442-.288.658-.442a26.73 26.73 0 002.684-2.026 27.564 27.564 0 001.974-1.83l.021-.021c.35.288.71.565 1.069.843l.022.018.132.097c.02.013.04.022.062.039.319.236.647.474.987.699.082.061.154.113.236.165.37.246.751.483 1.131.72.422.257.854.504 1.285.74.072.02.124.061.186.092.112.063.226.134.329.195.071.042.144.083.205.124.277.154.545.309.813.463.442.257.894.524 1.326.802.422.257.843.524 1.254.822a37.856 37.856 0 012.499 1.758h.021a53.324 53.324 0 013.033 2.447c.925.792 1.81 1.614 2.673 2.478.062.052.113.104.175.165a54.002 54.002 0 016.775 8.215c5.847 8.677 9.25 19.123 9.25 30.381z" fill="#9d78dc"/><g fill="#e7ecf2"><path d="M94.165 158.351l-.031.052-.01.02c-.021.021-.031.052-.051.072-2.899 4.451-7.681 6.775-12.492 6.775a14.777 14.777 0 01-10.867-4.74l-5.583-5.983a46.319 46.319 0 012.899-1.707c.01-.01.021-.01.031-.01h.01v-.011h.01c.36-.205.71-.411 1.059-.617.082-.041.154-.082.237-.133.288-.175.576-.36.863-.545.093-.063.185-.124.277-.175.186-.134.371-.258.555-.391l.186-.124c.308-.216.617-.432.915-.657 0-.011 0-.011.01 0 .021-.031.041-.042.062-.063.267-.205.535-.421.802-.638l.021.021a25.835 25.835 0 001.83 1.706c.309.277.627.545.946.781.01.02.01.02.021.011.287.247.586.473.884.688.072.052.133.104.206.145.298.226.606.441.925.637.689.474 1.408.905 2.148 1.296a23.417 23.417 0 002.293 1.121.345.345 0 00.154.071c.884.391 1.789.72 2.714 1.019.35.112.699.216 1.059.308.318.093.637.175.956.247a.829.829 0 00.226.052c1.038.257 2.107.441 3.198.555.37.052.74.093 1.121.113.75.072 1.511.103 2.282.103h.134zM123.129 154.626l-5.501 5.901a14.782 14.782 0 01-10.878 4.74c-4.832 0-9.644-2.345-12.533-6.848l-.01-.021-.041-.052c8.204-.01 15.628-3.402 20.964-8.842l.01-.01c.73.607 1.491 1.172 2.272 1.696.082.062.154.113.236.164.37.247.751.483 1.131.72.422.257.854.504 1.285.74.072.02.124.062.186.093a54.38 54.38 0 012.673 1.583c.072.043.134.084.206.136z"/></g><path d="M123.209 34.008a50.733 50.733 0 01-3.938 19.679c-4.863 11.577-13.89 20.984-25.199 26.341a50.685 50.685 0 01-21.756 4.874c-4.822 0-9.49-.669-13.911-1.923a52.51 52.51 0 01-5.552-1.934c-.01-.01-.01 0-.01 0-.216-.092-.421-.185-.627-.277-.175-.071-.339-.144-.504-.216a50.812 50.812 0 01-2.981-5.819 49.388 49.388 0 01-2.303-6.631 49.345 49.345 0 01-1.686-12.831c0-27.235 22.084-49.32 49.33-49.32 8.842 0 17.139 2.324 24.315 6.405.308.648.596 1.306.884 1.975a50.052 50.052 0 012.334 6.939 50.975 50.975 0 011.604 12.738z" fill="#141720"/><path d="M143.392 55.271a49.17 49.17 0 01-4.884 21.426c-8.513-5.531-15.268-13.54-19.236-23.01-2.55-6.056-3.948-12.697-3.948-19.679 0-6.98 1.398-13.622 3.948-19.678.164-.391.329-.771.504-1.162 14.157 8.667 23.616 24.284 23.616 42.103z" fill="#141720"/><path d="M135.938 52.792v31.399c0 .411-.01.813-.02 1.224-.01.37-.021.729-.041 1.1-.011.329-.031.658-.062.987-.011.236-.031.473-.052.71a5.45 5.45 0 01-.041.421c-.02.257-.041.525-.082.781-.041.494-.104.978-.175 1.471a4.701 4.701 0 01-.052.37c-.03.247-.072.493-.113.74v.031c-.01.051-.021.092-.021.144-.061.309-.113.617-.164.925-.093.494-.186.987-.288 1.471-.011.021-.011.041-.02.062-.011.072-.021.145-.041.216-.011.021-.011.041-.021.062a10.84 10.84 0 01-.145.638l-.03.145c-.02.112-.041.226-.082.339-.031.185-.083.37-.124.556-.03.103-.051.215-.093.318-.02.093-.051.185-.071.268a49.42 49.42 0 01-.72 2.487 47.69 47.69 0 01-.381 1.162c-.01.041-.03.082-.041.123-.113.329-.236.669-.35.998-.01.021-.01.03-.02.051-.041.104-.082.206-.123.319-.124.328-.247.658-.381.986-.154.401-.318.792-.483 1.183-.144.35-.298.699-.452 1.049-.021.062-.051.113-.071.175-.175.37-.34.74-.515 1.1-.175.381-.359.762-.555 1.142-.011.021-.02.031-.031.052-.359.729-.75 1.47-1.142 2.18l-.555.986a60.44 60.44 0 01-5.254 7.649c-.257.34-.524.669-.802.987-.381.463-.772.915-1.162 1.357-.329.37-.668.75-1.018 1.11-.011.021-.021.03-.041.051a55.735 55.735 0 01-3.023 3.013c-.205.206-.421.391-.637.586-.35.318-.699.627-1.06.926-.277.246-.565.482-.852.72a49.106 49.106 0 01-2.231 1.737c-.309.236-.627.463-.946.679-.514.37-1.038.72-1.563 1.059a16.34 16.34 0 01-.884.556c-.052.03-.093.062-.145.082a36.861 36.861 0 01-3.012 1.676c-.258.134-.515.257-.771.381a31.07 31.07 0 01-.802.369c-.34.154-.679.299-1.019.433a3.284 3.284 0 01-.4.154c-.401.164-.812.318-1.213.452-.504.184-1.019.339-1.522.483a20.38 20.38 0 01-1.059.277c-.021.01-.041.021-.072.021-.35.082-.699.164-1.048.227-.093.02-.186.041-.278.051-.288.052-.575.104-.863.134-.411.061-.822.113-1.234.134a2.83 2.83 0 01-.421.031c-.329.021-.648.03-.966.03h-.041c-.318 0-.637-.01-.956-.03a2.3 2.3 0 01-.37-.031 9.632 9.632 0 01-.895-.082c-.062 0-.134-.011-.195-.02-.38-.052-.761-.113-1.151-.186a12.62 12.62 0 01-.997-.205 29.557 29.557 0 01-5.397-1.82 39.208 39.208 0 01-4.719-2.488c-.093-.051-.175-.112-.268-.164a43.63 43.63 0 01-2.097-1.378 77.8 77.8 0 01-1.172-.843 51.66 51.66 0 01-3.629-2.92 81.097 81.097 0 01-.987-.905 42.002 42.002 0 01-3.187-3.176c-.052-.041-.092-.093-.134-.134a44.195 44.195 0 01-.895-.986 50.51 50.51 0 01-2.385-2.879 27.71 27.71 0 01-.853-1.101 57.587 57.587 0 01-3.681-5.521 55.491 55.491 0 01-1.994-3.66 48.048 48.048 0 01-1.645-3.568 14.577 14.577 0 01-.35-.863c-.164-.37-.309-.75-.442-1.12-.062-.176-.133-.35-.185-.524-.144-.371-.277-.74-.401-1.111-.185-.544-.36-1.1-.535-1.654a41.464 41.464 0 01-.463-1.614 32.076 32.076 0 01-.452-1.759c-.01-.062-.031-.123-.041-.184 0-.021-.01-.031-.01-.052a46.901 46.901 0 01-.514-2.447 13.234 13.234 0 01-.154-.936 38.171 38.171 0 01-.339-2.446c-.051-.36-.082-.72-.113-1.08-.041-.38-.072-.75-.093-1.131a47.714 47.714 0 01-.103-2.087 45.421 45.421 0 01-.021-1.224V52.792c0-22.341 17.509-40.601 39.563-41.793.041-.011.072-.011.113-.011l.864-.031c.432-.01.854-.021 1.285-.021h.041c.442 0 .884.011 1.326.021h.093c.309.011.617.021.926.042h.03l.432.03c.309.021.617.041.915.072.154.01.299.021.453.041.103.01.195.021.298.03 1.635.176 3.238.442 4.802.792a41.227 41.227 0 017.834 2.622 41.081 41.081 0 016.601 3.711 36.807 36.807 0 012.786 2.098c.35.288.688.576 1.028.864v.01a40.726 40.726 0 015.418 5.706c5.511 7.023 8.832 15.844 8.904 25.446.008.125.008.248.008.371z" fill="#dfb28b"/><path d="M143.392 55.271c0 4.421-.586 8.708-1.686 12.789a45.627 45.627 0 01-2.303 6.652 33.664 33.664 0 01-.895 1.984 39.78 39.78 0 01-2.57-1.799 38.218 38.218 0 01-1.819-1.398 52.447 52.447 0 01-4.257-3.876 50.976 50.976 0 01-10.59-15.937c-4.863 11.577-13.89 20.984-25.199 26.341a50.685 50.685 0 01-21.756 4.874c-4.822 0-9.49-.669-13.911-1.923a52.51 52.51 0 01-5.552-1.934c-.01-.01-.01 0-.01 0-.216-.092-.421-.185-.627-.277-.175-.071-.339-.144-.504-.216a50.812 50.812 0 01-2.981-5.819 49.388 49.388 0 01-2.303-6.631 49.345 49.345 0 01-1.686-12.831c0-27.235 22.084-49.32 49.33-49.32 8.842 0 17.139 2.324 24.315 6.405.462.257.925.535 1.388.813 14.157 8.667 23.616 24.284 23.616 42.103z" fill="#141720"/></g></svg>