<svg xmlns="http://www.w3.org/2000/svg" xmlns:xlink="http://www.w3.org/1999/xlink" viewBox="0 0 188.149 188.149"><defs><circle id="a" cx="94.074" cy="94.074" r="94.074"/></defs><use xlink:href="#a" overflow="visible" fill="#f3e4b2"/><clipPath id="b"><use xlink:href="#a" overflow="visible"/></clipPath><path d="M135.973 52.784V84.05a55.741 55.741 0 01-.062 2.457c-.01.329-.031.658-.062.987-.01.236-.031.473-.051.709-.011.145-.021.277-.042.422-.02.257-.041.524-.082.781-.041.493-.103.977-.175 1.47-.01.124-.031.247-.051.37-.031.247-.072.494-.113.74v.031c-.061.359-.123.709-.185 1.069-.093.493-.185.987-.288 1.47-.01.021-.01.042-.02.063-.01.071-.021.144-.041.216-.01.021-.01.041-.021.062-.051.268-.113.524-.175.781a2 2 0 01-.082.34c-.031.185-.083.369-.123.555-.031.103-.051.216-.093.318-.021.093-.051.186-.072.268a49.457 49.457 0 01-.72 2.488c-.124.391-.247.771-.38 1.162-.01.041-.031.082-.041.123l-.37 1.049c-.041.103-.082.205-.123.318-.124.329-.247.658-.38.987-.154.4-.319.791-.483 1.183-.144.35-.298.698-.452 1.048-.02.063-.051.113-.072.175-.175.37-.339.74-.514 1.101-.175.38-.36.761-.555 1.142-.37.75-.771 1.501-1.172 2.23l-.555.987a60.512 60.512 0 01-5.254 7.649c-.257.339-.524.668-.802.986-.38.463-.771.915-1.162 1.357-.35.391-.699.781-1.059 1.162a56.1 56.1 0 01-3.023 3.013c-.206.205-.421.391-.637.586-.35.318-.699.627-1.059.925-.277.247-.565.483-.854.72-.74.606-1.48 1.192-2.231 1.737-.308.237-.627.463-.946.679-.514.37-1.039.72-1.563 1.06-.288.195-.586.38-.884.555a37.472 37.472 0 01-3.157 1.758 25 25 0 01-.771.381c-.257.123-.524.247-.802.37-.339.154-.679.298-1.018.432a3.297 3.297 0 01-.401.154c-.401.165-.812.318-1.213.452a20.72 20.72 0 01-1.521.483c-.35.103-.709.195-1.059.277a.142.142 0 01-.072.021c-.35.083-.699.165-1.049.227a2.696 2.696 0 01-.277.052c-.288.051-.576.103-.864.134-.411.062-.823.113-1.234.133a2.84 2.84 0 01-.421.031c-.329.02-.658.031-.977.031h-.031c-.318 0-.637-.011-.956-.031a2.2 2.2 0 01-.37-.031 9.3 9.3 0 01-.895-.082c-.061 0-.133-.01-.195-.021-.38-.051-.761-.113-1.151-.185a12.75 12.75 0 01-.998-.206 29.628 29.628 0 01-5.397-1.819 39.497 39.497 0 01-4.719-2.488 46.744 46.744 0 01-2.365-1.542 85.684 85.684 0 01-1.172-.844 51.66 51.66 0 01-3.629-2.92c-.329-.298-.658-.596-.987-.904-.329-.298-.658-.607-.977-.905a51.77 51.77 0 01-2.344-2.405 44.271 44.271 0 01-.895-.987 49.821 49.821 0 01-2.385-2.879 26.973 26.973 0 01-.853-1.1 57.701 57.701 0 01-3.681-5.522c-.288-.483-.565-.977-.843-1.47a56.055 56.055 0 01-2.796-5.758 15.15 15.15 0 01-.35-.863c-.164-.37-.308-.751-.442-1.121a50.869 50.869 0 01-.586-1.635c-.185-.545-.36-1.101-.535-1.655a42.747 42.747 0 01-.462-1.614 31.385 31.385 0 01-.453-1.758c-.01-.062-.031-.124-.041-.186a48.874 48.874 0 01-.524-2.498 44.927 44.927 0 01-.493-3.383c-.052-.359-.083-.72-.113-1.079a21.629 21.629 0 01-.093-1.131 47.837 47.837 0 01-.103-2.088c-.01-.452-.021-.904-.021-1.356V52.784c0-23.103 18.722-41.835 41.824-41.855h.042c3.187 0 6.292.359 9.273 1.028a41.201 41.201 0 017.834 2.621 41.494 41.494 0 019.387 5.81 41.448 41.448 0 016.447 6.58c5.511 7.022 8.831 15.844 8.903 25.446.01.123.01.246.01.37z" clip-path="url(#b)" fill="#ecc19c"/><path d="M148.65 200.743v.01H39.575v-.01a54.258 54.258 0 012.91-17.612c.339-.997.709-1.984 1.111-2.961v-.011c.391-.977.822-1.933 1.274-2.878a53.906 53.906 0 018.657-12.955c.339-.391.699-.77 1.059-1.151.359-.37.72-.74 1.089-1.11a54.164 54.164 0 015.892-5.079 55.383 55.383 0 013.177-2.189 59.56 59.56 0 013.331-1.964c.021-.02.041-.02.041-.02.442-.237.874-.494 1.306-.761a32.555 32.555 0 003.691-2.57 34.575 34.575 0 0011.001-15.34 34.405 34.405 0 002.015-11.649l7.947.041 8.174.042c0 4.04.689 7.916 1.964 11.515a34.428 34.428 0 0010.96 15.401c.74.607 1.491 1.162 2.282 1.687a21.291 21.291 0 001.368.884c.421.257.853.514 1.285.751a.51.51 0 01.185.092 62.809 62.809 0 012.673 1.573c.422.257.843.524 1.254.822a37.76 37.76 0 012.499 1.759c0 .01.01.01.01.01h.01a56.907 56.907 0 013.033 2.437 49.474 49.474 0 012.848 2.643c9.911 9.867 16.029 23.501 16.029 38.593z" clip-path="url(#b)" fill="#ecc19c"/><path d="M148.646 200.739H39.572a54.253 54.253 0 014.02-20.573v-.011c.391-.977.823-1.933 1.275-2.879a53.918 53.918 0 018.657-12.954 35.61 35.61 0 011.059-1.151c.36-.37.72-.74 1.09-1.11a54.153 54.153 0 015.891-5.079 56.272 56.272 0 016.508-4.164c.021-.021.041-.01.041-.01v-.011a31.761 31.761 0 004.976-3.342l.021.021c5.326 5.449 12.739 8.832 20.964 8.853h.083c8.225 0 15.668-3.393 21.015-8.842l.01-.011c.73.607 1.491 1.173 2.272 1.697.082.061.154.112.236.164.37.247.751.483 1.131.72.421.257.854.504 1.285.74.072.021.124.062.185.093.483.268.977.545 1.45.832.412.247.823.494 1.224.751.421.257.843.524 1.254.822a37.479 37.479 0 012.498 1.759h.021a54.107 54.107 0 013.033 2.446 49.833 49.833 0 012.848 2.643c9.91 9.869 16.027 23.502 16.027 38.596z" clip-path="url(#b)" fill="#eb6d4a"/><path d="M135.973 84.05a55.741 55.741 0 01-.062 2.457c-.01.329-.031.658-.062.987-.01.236-.031.473-.051.709-.011.145-.021.277-.042.422-.02.257-.041.524-.082.781-.052.493-.103.986-.175 1.47-.01.124-.031.247-.051.37-.031.247-.072.494-.113.74-.051.37-.123.74-.185 1.101-.082.432-.165.853-.257 1.274a1.962 1.962 0 01-.052.258c-.01.071-.031.144-.041.216-.01.021-.01.041-.021.062a.54.54 0 01-.02.134c-.051.216-.093.432-.154.647a2 2 0 01-.082.34c-.042.205-.093.4-.154.596-.01.093-.031.186-.062.277-.021.093-.051.186-.072.268a49.457 49.457 0 01-.72 2.488c-.124.391-.247.771-.38 1.162-.01.041-.031.082-.041.123l-.37 1.049c-.041.103-.082.205-.123.318-.124.329-.247.658-.38.987-.154.4-.319.791-.483 1.183-.144.35-.298.698-.452 1.048-.02.063-.051.113-.072.175-.175.37-.339.74-.514 1.101-.175.38-.36.761-.555 1.142-.37.75-.771 1.501-1.172 2.23l-.555.987a60.512 60.512 0 01-5.254 7.649c-.257.339-.524.668-.802.986-.38.463-.771.915-1.162 1.357-.35.391-.699.781-1.059 1.162a56.1 56.1 0 01-3.023 3.013c-.206.205-.421.391-.637.586-.35.318-.699.627-1.059.925-.277.247-.565.483-.854.72-.74.606-1.48 1.192-2.231 1.737-.308.237-.627.463-.946.679-.514.37-1.039.72-1.563 1.06-.288.195-.586.38-.884.555a37.472 37.472 0 01-3.157 1.758 25 25 0 01-.771.381c-.257.123-.524.247-.802.37-.339.154-.679.298-1.018.432a3.297 3.297 0 01-.401.154c-.401.165-.812.318-1.213.452a20.72 20.72 0 01-1.521.483c-.35.103-.709.195-1.059.277a.142.142 0 01-.072.021c-.35.083-.699.165-1.049.227a2.696 2.696 0 01-.277.052c-.288.051-.576.103-.864.134-.411.062-.823.113-1.234.133a2.84 2.84 0 01-.421.031c-.329.02-.658.031-.977.031h-.031c-.318 0-.637-.011-.956-.031a2.2 2.2 0 01-.37-.031 9.3 9.3 0 01-.895-.082c-.061 0-.133-.01-.195-.021-.38-.051-.761-.113-1.151-.185a12.75 12.75 0 01-.998-.206 29.628 29.628 0 01-5.397-1.819 39.497 39.497 0 01-4.719-2.488 38.998 38.998 0 01-2.365-1.542 85.684 85.684 0 01-1.172-.844 51.66 51.66 0 01-3.629-2.92c-.329-.298-.658-.596-.987-.904-.329-.298-.658-.607-.977-.905a51.77 51.77 0 01-2.344-2.405 44.271 44.271 0 01-.895-.987 49.821 49.821 0 01-2.385-2.879 26.973 26.973 0 01-.853-1.1 57.701 57.701 0 01-3.681-5.522c-.288-.483-.565-.977-.843-1.47a56.055 56.055 0 01-2.796-5.758 15.15 15.15 0 01-.35-.863c-.164-.37-.308-.751-.442-1.121a50.869 50.869 0 01-.586-1.635c-.185-.545-.36-1.101-.535-1.655a42.747 42.747 0 01-.462-1.614 31.385 31.385 0 01-.453-1.758c-.01-.062-.031-.124-.041-.186a48.874 48.874 0 01-.524-2.498 44.927 44.927 0 01-.493-3.383c-.052-.359-.083-.72-.113-1.079a21.629 21.629 0 01-.093-1.131 47.837 47.837 0 01-.103-2.088c-.01-.452-.021-.904-.021-1.356l6.683 13.14 11.484 5.007L84 103.42h.01l10.065.915h.062l9.417.853s0-.01.01 0l21.005 1.893 11.404-23.031z" clip-path="url(#b)" fill="#543e36"/><g clip-path="url(#b)" fill="#543e36"><path d="M94.159 90.651l-.01 10.127v.01l-.01 3.548v2.786l-.01 9.253v.011l-.01-.011h-.01l-.031-.021L53.64 95.771c-.01-.062-.031-.124-.041-.186a48.874 48.874 0 01-.524-2.498 44.927 44.927 0 01-.493-3.383c-.052-.359-.083-.72-.113-1.079a21.629 21.629 0 01-.093-1.131 47.837 47.837 0 01-.103-2.088c-.01-.452-.021-.904-.021-1.356V71.764c0 .175.01.35.01.524.082 2.971.555 6.24 1.47 9.582.71 2.57 1.593 4.945 2.622 7.063v.01c2.694 5.604 6.303 9.407 9.623 10.024.206.031.421.052.627.072a36.15 36.15 0 004.02.226c5.244 0 9.901-4.215 12.831-5.922.021-.01.041-.021.062-.03.154-.093.308-.186.442-.278a.743.743 0 01.124-.071c2.467-1.409 6.025-2.304 9.993-2.313h.083z"/><path d="M135.981 71.759l-.01 12.286c0 3.084-.288 6.107-.822 9.037a56.644 56.644 0 01-.751 3.485l-9.49 13.705-30.783 6.097h-.01l-.01.011v-.011l-.031-25.728h.083c3.968.011 7.536.905 10.003 2.313a.668.668 0 01.113.072 16.375 16.375 0 00.504.308c2.94 1.706 7.587 5.925 12.831 5.925a36.15 36.15 0 004.02-.226c.216-.021.421-.041.637-.072 3.311-.617 6.93-4.421 9.613-10.024v-.01c1.028-2.118 1.912-4.493 2.622-7.063.925-3.394 1.409-6.704 1.47-9.716.011-.132.011-.256.011-.389z"/></g><ellipse cx="94.108" cy="103.95" rx="10.255" ry="3.171" clip-path="url(#b)" fill="#ecc19c"/><path d="M94.116 10.929h-.04c-23.102.021-41.824 18.753-41.824 41.855V71.24s1.737-11.012 6.416-16.358c5.079-5.809 3.794-14.641 15.186-14.641 7.351 0 7.762 2.714 20.213 2.714H94.127c12.451 0 12.862-2.714 20.213-2.714 11.392 0 10.106 8.831 15.186 14.641 4.678 5.346 6.415 16.358 6.415 16.358V52.784c-.001-23.102-18.723-41.835-41.825-41.855z" clip-path="url(#b)" fill="#543e36"/><g clip-path="url(#b)"><path d="M121.74 153.721l-1.131 1.152c-7.053 7.186-16.471 11.145-26.516 11.145-10.147-.021-19.545-3.989-26.567-11.165l-1.08-1.11c.535-.319 1.08-.628 1.625-.926.021-.021.041-.01.041-.01v-.011a31.761 31.761 0 004.976-3.342l.021.021c5.326 5.449 12.739 8.832 20.964 8.853h.083c8.225 0 15.668-3.393 21.015-8.842l.01-.011c.73.607 1.491 1.173 2.272 1.697.082.061.154.112.236.164.37.247.751.483 1.131.72.421.257.854.504 1.285.74.072.021.124.062.185.093.484.268.977.545 1.45.832z" fill="#c34628"/></g></svg>