<svg xmlns="http://www.w3.org/2000/svg" xmlns:xlink="http://www.w3.org/1999/xlink" viewBox="0 0 188.148 188.148"><defs><circle id="a" cx="94.074" cy="94.074" r="94.074"/></defs><use xlink:href="#a" overflow="visible" fill="#7e6990"/><clipPath id="b"><use xlink:href="#a" overflow="visible"/></clipPath><g clip-path="url(#b)"><path d="M148.645 200.743v.01H39.57v-.01a54.258 54.258 0 014.02-20.573v-.01c.391-.977.822-1.933 1.275-2.878a53.936 53.936 0 018.657-12.955c.339-.391.699-.771 1.059-1.152.36-.37.72-.74 1.09-1.11a54.044 54.044 0 019.068-7.269c.391-.247.781-.494 1.182-.73.175-.103.36-.206.535-.309a49.742 49.742 0 011.614-.925c.021-.021.041-.021.041-.021.442-.237.874-.494 1.306-.761a32.555 32.555 0 003.691-2.57 34.594 34.594 0 0011.001-15.34 34.406 34.406 0 002.016-11.649l7.947.041h.021l8.153.042c0 4.04.689 7.917 1.963 11.515a32.649 32.649 0 001.84 4.257 34.498 34.498 0 009.12 11.145 27.74 27.74 0 002.283 1.686 20.672 20.672 0 001.367.885c.422.257.854.514 1.285.75a.526.526 0 01.185.092c.483.268.967.545 1.439.833.412.236.823.483 1.234.74.421.257.843.524 1.254.822a38.103 38.103 0 012.498 1.758c0 .01.01.01.01.01h.011a57.804 57.804 0 013.033 2.436 49.474 49.474 0 012.848 2.643c9.911 9.871 16.029 23.504 16.029 38.597z" fill="#ecc19c"/><path d="M148.645 200.743H39.57a54.258 54.258 0 014.02-20.573v-.01c.391-.977.822-1.933 1.275-2.878a53.936 53.936 0 018.657-12.955c.339-.391.699-.771 1.059-1.152.36-.37.72-.74 1.09-1.11a54.044 54.044 0 019.068-7.269c.391-.247.781-.494 1.182-.73.175-.113.35-.216.524-.319.535-.319 1.08-.627 1.625-.925.021-.021.041-.01.041-.01v-.01a59.14 59.14 0 001.306-.75 31.884 31.884 0 003.67-2.591l.021.02c5.326 5.449 12.739 8.832 20.964 8.852h.082c8.225 0 15.669-3.393 21.015-8.842l.01-.01c.73.607 1.491 1.172 2.272 1.696.082.062.154.113.236.165.37.247.75.483 1.131.72.422.257.854.504 1.285.74.072.021.123.062.185.092.483.268.977.545 1.45.833.411.247.823.494 1.224.751.421.257.843.524 1.254.822a38.103 38.103 0 012.498 1.758h.021a53.678 53.678 0 013.033 2.447 49.474 49.474 0 012.848 2.643c9.911 9.869 16.029 23.502 16.029 38.595z" fill="#1c5a7d"/><path d="M121.738 153.727l-.01.01-1.121 1.141c-7.053 7.187-16.471 11.145-26.516 11.145h-.021c-10.137-.031-19.524-3.989-26.546-11.165l-1.069-1.1-.01-.01c.535-.319 1.08-.627 1.625-.925.021-.021.041-.01.041-.01v-.01a59.14 59.14 0 001.306-.75 31.884 31.884 0 003.67-2.591l.021.02c5.326 5.449 12.739 8.832 20.964 8.852h.082c8.225 0 15.669-3.393 21.015-8.842l.01-.01c.73.607 1.491 1.172 2.272 1.696.082.062.154.113.236.165.37.247.75.483 1.131.72.422.257.854.504 1.285.74.072.021.123.062.185.092.484.266.978.544 1.45.832z" fill="#7ca6ba"/><path d="M135.968 64.094V89.19c0 .452-.01.905-.02 1.357-.01.349-.021.699-.041 1.048-.01.35-.031.689-.062 1.038-.01.236-.031.473-.051.71a5.45 5.45 0 01-.041.421c-.02.257-.041.524-.082.781-.021.247-.041.494-.082.74a9.227 9.227 0 01-.093.73c-.092.74-.216 1.48-.35 2.21-.092.494-.185.987-.288 1.471-.01.021-.01.041-.02.062-.01.072-.021.144-.041.216-.01.021-.01.041-.021.062 0 .021 0 .041-.01.062-.021.103-.041.206-.072.308a4.46 4.46 0 01-.082.37c-.02.134-.052.257-.093.381-.031.185-.082.37-.124.555-.031.103-.051.216-.092.319-.021.093-.051.185-.072.268a49.763 49.763 0 01-.72 2.488 52.42 52.42 0 01-.38 1.162c-.011.041-.031.082-.042.123l-.37 1.049c-.041.103-.082.205-.123.319-.124.329-.247.658-.38.987-.154.401-.319.792-.483 1.183-.144.35-.298.699-.453 1.048-.02.062-.051.113-.072.175-.175.37-.339.74-.514 1.1-.175.38-.36.761-.555 1.142a57.62 57.62 0 01-1.172 2.231l-.555.987a60.544 60.544 0 01-5.254 7.649c-.257.339-.524.668-.802.987-.381.463-.771.915-1.162 1.357-.35.391-.699.781-1.059 1.162a55.735 55.735 0 01-3.023 3.013c-.206.206-.421.391-.638.586-.35.319-.699.627-1.059.925-.278.247-.565.483-.854.72-.74.606-1.48 1.192-2.231 1.737-.309.237-.627.463-.946.679-.514.37-1.039.72-1.563 1.059-.288.195-.586.38-.884.555a37.181 37.181 0 01-2.889 1.624 3.158 3.158 0 01-.267.133c-.257.134-.514.257-.771.381-.257.123-.524.247-.802.37-.339.154-.678.298-1.018.432a3.362 3.362 0 01-.401.154c-.401.164-.813.319-1.213.452a21.9 21.9 0 01-1.521.483c-.35.103-.709.195-1.059.277a.142.142 0 01-.072.021c-.35.082-.699.164-1.049.226a2.463 2.463 0 01-.278.051c-.288.051-.576.103-.864.134-.411.061-.822.113-1.233.134a2.85 2.85 0 01-.421.031c-.329.02-.658.031-.977.031h-.031c-.319 0-.637-.01-.956-.031-.124 0-.247-.01-.37-.031a9.632 9.632 0 01-.895-.082c-.062 0-.134-.01-.195-.021-.38-.051-.761-.113-1.152-.185a12.185 12.185 0 01-.997-.205 29.592 29.592 0 01-5.398-1.82 30.34 30.34 0 01-1.861-.895 34.485 34.485 0 01-2.858-1.594 45.864 45.864 0 01-2.365-1.542c-.391-.278-.781-.555-1.172-.843a51.893 51.893 0 01-3.629-2.92 73.724 73.724 0 01-.987-.905 78.52 78.52 0 01-.977-.905 51.795 51.795 0 01-2.344-2.406 44.271 44.271 0 01-.895-.987 49.415 49.415 0 01-2.385-2.879c-.298-.36-.576-.73-.853-1.1a57.985 57.985 0 01-2.951-4.308 82.968 82.968 0 01-.73-1.213c-.288-.483-.565-.977-.843-1.47a56.268 56.268 0 01-2.797-5.758c-.123-.288-.247-.576-.35-.863-.164-.37-.308-.75-.442-1.121a50.869 50.869 0 01-.586-1.635c-.185-.545-.36-1.1-.535-1.655a40.966 40.966 0 01-.463-1.614 32.275 32.275 0 01-.452-1.758c-.01-.062-.031-.124-.041-.185a48.688 48.688 0 01-1.018-5.881c-.051-.36-.082-.72-.113-1.08a20.51 20.51 0 01-.092-1.131 47.791 47.791 0 01-.103-2.087c-.01-.453-.021-.905-.021-1.357V64.094a41.74 41.74 0 013.259-16.214c.051-.144.113-.277.175-.411a40.547 40.547 0 012.838-5.418c.165-.277.339-.545.514-.812 7.464-11.433 20.368-18.99 35.039-19h.041c3.188 0 6.292.36 9.274 1.028a41.227 41.227 0 017.834 2.622 41.49 41.49 0 019.387 5.809 41.441 41.441 0 016.446 6.58c.74.946 1.439 1.922 2.098 2.93.185.277.37.555.535.843a40.86 40.86 0 012.837 5.398l.185.432a41.508 41.508 0 013.249 15.844c.012.122.012.245.012.369z" fill="#ecc19c"/><path d="M135.968 89.19c0 .452-.01.905-.02 1.357-.01.349-.021.699-.041 1.048-.01.35-.031.689-.062 1.038-.01.236-.031.473-.051.71a5.45 5.45 0 01-.041.421c-.02.257-.041.524-.082.781-.021.247-.051.494-.082.74a9.227 9.227 0 01-.093.73c-.092.74-.216 1.48-.35 2.21-.082.432-.164.854-.257 1.275-.01.093-.031.175-.051.257-.01.072-.021.144-.041.216-.01.021-.01.041-.021.062 0 .021 0 .041-.01.062v.021c-.021.113-.051.226-.072.329-.02.113-.051.226-.082.329-.02.134-.052.257-.093.381a5.78 5.78 0 01-.154.596c-.01.092-.031.185-.061.277-.021.093-.051.185-.072.268a49.763 49.763 0 01-.72 2.488 52.42 52.42 0 01-.38 1.162c-.011.041-.031.082-.042.123l-.37 1.049c-.041.103-.082.205-.123.319-.124.329-.247.658-.38.987-.154.401-.319.792-.483 1.183-.144.35-.298.699-.453 1.048-.02.062-.051.113-.072.175-.175.37-.339.74-.514 1.1-.175.38-.36.761-.555 1.142a57.62 57.62 0 01-1.172 2.231l-.555.987a60.544 60.544 0 01-5.254 7.649c-.257.339-.524.668-.802.987-.381.463-.771.915-1.162 1.357-.35.391-.699.781-1.059 1.162a55.735 55.735 0 01-3.023 3.013c-.206.206-.421.391-.638.586-.35.319-.699.627-1.059.925-.278.247-.565.483-.854.72-.74.606-1.48 1.192-2.231 1.737-.309.237-.627.463-.946.679-.514.37-1.039.72-1.563 1.059-.288.195-.586.38-.884.555a37.181 37.181 0 01-2.889 1.624 3.158 3.158 0 01-.267.133c-.257.134-.514.257-.771.381-.257.123-.524.247-.802.37-.339.154-.678.298-1.018.432a3.362 3.362 0 01-.401.154c-.401.164-.813.319-1.213.452a21.9 21.9 0 01-1.521.483c-.35.103-.709.195-1.059.277a.142.142 0 01-.072.021c-.35.082-.699.164-1.049.226a2.463 2.463 0 01-.278.051c-.288.051-.576.103-.864.134-.411.061-.822.113-1.233.134a2.85 2.85 0 01-.421.031c-.329.02-.658.031-.977.031h-.031c-.319 0-.637-.01-.956-.031-.124 0-.247-.01-.37-.031a9.632 9.632 0 01-.895-.082c-.062 0-.134-.01-.195-.021-.38-.051-.761-.113-1.152-.185a12.185 12.185 0 01-.997-.205 29.592 29.592 0 01-5.398-1.82 30.34 30.34 0 01-1.861-.895 34.485 34.485 0 01-2.858-1.594 38.689 38.689 0 01-2.365-1.542c-.391-.278-.781-.555-1.172-.843a51.893 51.893 0 01-3.629-2.92 73.724 73.724 0 01-.987-.905 78.52 78.52 0 01-.977-.905 51.795 51.795 0 01-2.344-2.406 44.271 44.271 0 01-.895-.987 49.415 49.415 0 01-2.385-2.879c-.298-.36-.576-.73-.853-1.1a57.985 57.985 0 01-2.951-4.308 82.968 82.968 0 01-.73-1.213c-.288-.483-.565-.977-.843-1.47a56.268 56.268 0 01-2.797-5.758c-.123-.288-.247-.576-.35-.863-.164-.37-.308-.75-.442-1.121a50.869 50.869 0 01-.586-1.635c-.185-.545-.36-1.1-.535-1.655a40.966 40.966 0 01-.463-1.614 32.275 32.275 0 01-.452-1.758c-.01-.062-.031-.124-.041-.185a48.688 48.688 0 01-1.018-5.881c-.051-.36-.082-.72-.113-1.08a20.51 20.51 0 01-.092-1.131 47.791 47.791 0 01-.103-2.087c-.01-.453-.021-.905-.021-1.357l6.683 13.14 11.484 5.007 13.582 1.224h.01l10.065.915h.062l9.418.854h.01l21.005 1.892 11.403-23.03z" fill="#d4dce6"/><g fill="#d4dce6"><path d="M94.153 95.791l-.01 10.127v.011l-.01 3.547v2.786l-.01 9.253v.01l-.01-.01h-.01l-.01-.01-.021-.01-40.437-20.583c-.01-.062-.031-.124-.041-.185a48.688 48.688 0 01-1.018-5.881c-.051-.36-.082-.72-.113-1.08a20.51 20.51 0 01-.092-1.131 47.791 47.791 0 01-.103-2.087c-.01-.453-.021-.905-.021-1.357V76.904c0 .175.01.35.01.524 0 .123.01.247.021.37.102 2.868.576 6.004 1.449 9.212.709 2.57 1.594 4.945 2.622 7.064v.01c2.694 5.603 6.302 9.407 9.624 10.024.205.031.421.051.627.072a36.15 36.15 0 004.02.226c5.243 0 9.901-4.215 12.831-5.922l.062-.031c.154-.093.309-.185.442-.278.041-.031.082-.051.123-.072 2.468-1.409 6.025-2.303 9.994-2.313h.081z"/><path d="M135.981 76.899l-.01 12.286c0 3.084-.288 6.107-.822 9.037a57.388 57.388 0 01-.75 3.485l-9.49 13.705-30.783 6.097h-.01l-.01.01v-.01l-.031-25.728h.082c3.968.01 7.536.905 10.003 2.313a.71.71 0 01.113.072c.144.092.298.185.452.277.01.011.031.021.052.031 2.94 1.707 7.587 5.925 12.831 5.925a36.15 36.15 0 004.02-.226c.216-.021.421-.041.637-.072 3.31-.617 6.93-4.421 9.613-10.024v-.01c1.028-2.118 1.912-4.493 2.622-7.063.925-3.393 1.409-6.704 1.47-9.716.011-.132.011-.255.011-.389z"/></g><ellipse cx="94.107" cy="109.091" rx="10.255" ry="3.17" fill="#ecc19c"/><path d="M130.776 63.477a.347.347 0 00-.298-.35c-1.47-.226-8.091-1.131-15.206-1.131-8.071 0-18.486 2.529-20.306 2.529h-1.614c-.843 0-3.557-.545-7.032-1.131-3.989-.679-8.976-1.398-13.273-1.398-5.212 0-10.147.494-12.996.833-1.049.123-1.81.236-2.21.298a.346.346 0 00-.298.35l-.082 4.338c0 .154.092.288.226.35l.494.165c.73.278.668 13.355 4.565 16.625 2.313 1.923 4.38 3.023 13.067 3.023 5.028 0 8.194-1.357 11.196-5.408 2.159-2.91 4.082-9.788 4.082-9.788.555-2.735 2.539-3.043 2.981-3.084h.083c.072 0 2.458.041 3.074 3.084 0 0 1.923 6.878 4.082 9.788 3.002 4.051 6.168 5.408 11.196 5.408 8.688 0 10.754-1.1 13.067-3.023 3.896-3.27 3.835-16.347 4.565-16.625l.494-.165a.385.385 0 00.226-.35l-.083-4.338zM87.008 78.95c-1.285 3.023-4.575 6.919-9.222 7.156-13.931.699-14.568-3.187-15.474-6.271-.905-3.085-1.141-5.789-.781-8.863.36-3.084 1.141-4.894 2.54-5.798.596-.401 1.254-.761 2.93-1.018 1.501-.216 3.814-.35 7.67-.35 2.241 0 4.329.175 6.2.473 4.955.802 8.307 2.488 8.307 4.143-.001 1.141-.288 6.056-2.17 10.528zm38.997.885c-.905 3.084-1.542 6.971-15.474 6.271-4.647-.236-7.947-4.133-9.222-7.156-1.882-4.472-2.169-9.387-2.169-10.528 0-2.282 6.343-4.616 14.507-4.616 8.153 0 9.459.607 10.6 1.368 1.398.905 2.18 2.714 2.54 5.798.359 3.074.123 5.778-.782 8.863z" fill="#1a1a1a"/><g fill="#d4dce6"><path d="M136.061 47.87c-.011 0-.011.01-.021.01H52.247c0-29.6 19.946-28.407 41.825-25.971h.021c1.553.175 3.115.35 4.678.524 16.368 1.82 29.692-5.254 36.365-11.515 9.077 6.468 10.692 30.341.925 36.952z"/><path d="M66.846 46.132l-.226.709c-.113.349-.226.699-.35 1.038-.103.278-.195.555-.309.823-1.922 5.141-4.832 9.85-8.4 14.065-2.508 2.971-5.027 7.742-5.284 15.031-.021.421-.031.843-.031 1.285v-14.99-16.214l3.434-.411 3.352-.401 3.948-.473 3.866-.462zM136.176 47.883l-14.595-1.742.227.705c1.889 5.875 5.074 11.208 9.055 15.924 2.657 3.148 5.314 8.302 5.314 16.323l-.001-31.21z"/><ellipse cx="94.07" cy="46.141" rx="31.19" ry="5.912"/></g></g></svg>