<svg height="512" width="512" viewBox="0 0 512 512" xmlns="http://www.w3.org/2000/svg"><g clip-rule="evenodd" fill-rule="evenodd"><path d="M256.23 512C396.81 512 512 396.81 512 256.23 512 115.184 396.81 0 256.23 0 115.184 0 0 115.184 0 256.23 0 396.81 115.184 512 256.23 512z" fill="#7CB442"/><path d="M180.489 307.476c0 7.249-4.531 8.608-8.616 4.53-27.661-26.31-19.045-78.913-8.616-116.55 4.085-15.874-4.531-19.951-14.061-9.976-26.755 28.567-40.808 58.501-37.637 100.216 7.71 97.505 82.991 140.142 173.231 128.346 57.604-7.265 89.787-49.886 106.566-92.068 11.343-28.106 13.155-90.24 1.375-144.656-4.999-20.865-18.607-67.118-38.558-77.547-23.576-12.248-72.556 8.617-92.053 23.576-53.064 40.815-82.537 121.088-81.631 184.129z" fill="#FFF"/></g></svg>
